<?xml version="1.0" encoding="utf-8"?>
<!-- Generator: Adobe Illustrator 15.0.0, SVG Export Plug-In . SVG Version: 6.00 Build 0)  -->
<!DOCTYPE svg PUBLIC "-//W3C//DTD SVG 1.1//EN" "http://www.w3.org/Graphics/SVG/1.1/DTD/svg11.dtd">
<svg version="1.1" id="Layer_1" xmlns="http://www.w3.org/2000/svg" xmlns:xlink="http://www.w3.org/1999/xlink" x="0px" y="0px"
	 width="16px" height="16px" viewBox="0 0 16 16" enable-background="new 0 0 16 16" xml:space="preserve">
<g>
	<circle cx="8" cy="8" r="7.27"/>
	<path fill="#FFFFFF" d="M8.011,4.752c-0.255,0-0.473-0.078-0.653-0.234S7.086,4.14,7.086,3.854c0-0.259,0.093-0.472,0.278-0.64
		c0.186-0.166,0.4-0.251,0.646-0.251c0.236,0,0.446,0.076,0.629,0.228c0.184,0.151,0.275,0.373,0.275,0.663
		c0,0.281-0.09,0.501-0.269,0.659C8.468,4.673,8.256,4.752,8.011,4.752z M8.915,7.095v4.829c0,0.366-0.088,0.644-0.262,0.831
		s-0.396,0.281-0.663,0.281s-0.485-0.097-0.652-0.288c-0.168-0.191-0.252-0.466-0.252-0.824V7.148c0-0.362,0.084-0.634,0.252-0.817
		C7.505,6.147,7.723,6.057,7.99,6.057s0.489,0.091,0.663,0.274S8.915,6.77,8.915,7.095z"/>
</g>
</svg>
