<?xml version="1.0" encoding="utf-8"?>
<!-- Generator: Adobe Illustrator 15.0.2, SVG Export Plug-In  -->
<!DOCTYPE svg PUBLIC "-//W3C//DTD SVG 1.1//EN" "http://www.w3.org/Graphics/SVG/1.1/DTD/svg11.dtd" [
	<!ENTITY ns_flows "http://ns.adobe.com/Flows/1.0/">
]>
<svg version="1.1"
	 xmlns="http://www.w3.org/2000/svg" xmlns:xlink="http://www.w3.org/1999/xlink" xmlns:a="http://ns.adobe.com/AdobeSVGViewerExtensions/3.0/"
	 x="0px" y="0px" width="24px" height="24px" viewBox="0 -0.002 24 24" overflow="visible" enable-background="new 0 -0.002 24 24"
	 xml:space="preserve">
<defs>
</defs>
<path fill="#FFFFFF" d="M12,0C5.374,0,0,5.373,0,12c0,6.627,5.374,12,12,12c6.627,0,12-5.373,12-12C24,5.373,18.627,0,12,0z
	 M16.331,13.129l-4.8,4.803c-0.312,0.312-0.723,0.469-1.131,0.469c-0.411,0-0.819-0.156-1.133-0.469
	c-0.625-0.625-0.625-1.639,0-2.264l3.669-3.67L9.268,8.332c-0.625-0.625-0.625-1.639,0-2.264s1.638-0.625,2.264,0l4.8,4.799
	c0.3,0.301,0.468,0.707,0.468,1.131C16.799,12.424,16.631,12.83,16.331,13.129z"/>
</svg>
