<?xml version="1.0" encoding="utf-8"?>
<!-- Generator: Adobe Illustrator 18.1.0, SVG Export Plug-In . SVG Version: 6.00 Build 0)  -->
<svg version="1.1" id="Layer_1" xmlns="http://www.w3.org/2000/svg" xmlns:xlink="http://www.w3.org/1999/xlink" x="0px" y="0px"
	 width="16px" height="16px" viewBox="0 0 16 16" enable-background="new 0 0 16 16" xml:space="preserve">
<path fill="#4A4A48" d="M14.9,3.6L16,2.9l-0.4-1l-1.2,0.3C14.2,2,14,1.8,13.8,1.6l0.3-1.2L13.1,0l-0.7,1c-0.3,0-0.6,0-0.9,0l-0.6-1
	l-1,0.4l0.3,1.2C10,1.8,9.8,2,9.6,2.2L8.4,1.9L8,2.9l1,0.7c0,0.3,0,0.6,0,0.9L8,5.1l0.4,1l1.2-0.3C9.8,6,10,6.2,10.2,6.4L9.9,7.6
	L10.9,8l0.7-1c0.3,0,0.6,0,0.9,0l0.7,1l1-0.4l-0.3-1.2C14,6.2,14.2,6,14.4,5.8l1.2,0.3L16,5.1l-1.1-0.7C15,4.2,15,3.9,14.9,3.6z
	 M13.6,4.7c-0.4,0.9-1.4,1.3-2.3,0.9c-0.9-0.4-1.3-1.4-0.9-2.3c0.4-0.9,1.4-1.3,2.3-0.9C13.6,2.8,14,3.8,13.6,4.7z"/>
<path fill="#4A4A48" d="M8.6,8.7l0.9-1.3L8.6,6.4L7.3,7.4C7,7.2,6.6,7,6.3,6.9L6,5.3H4.7L4.4,6.9C4,7,3.7,7.1,3.3,7.3L2,6.4L1.1,7.4
	L2,8.7C1.8,9,1.7,9.3,1.6,9.7L0,10v1.3l1.6,0.3C1.7,12,1.8,12.3,2,12.7L1.1,14L2,14.9L3.3,14c0.3,0.2,0.7,0.3,1.1,0.4L4.7,16H6
	l0.3-1.6C6.6,14.3,7,14.2,7.3,14l1.3,0.9L9.6,14l-0.9-1.3C8.8,12.3,9,12,9.1,11.6l1.6-0.3V10L9.1,9.7C9,9.4,8.8,9,8.6,8.7z
	 M5.3,12.5c-1,0-1.9-0.8-1.9-1.9c0-1,0.8-1.9,1.9-1.9c1,0,1.9,0.8,1.9,1.9C7.2,11.7,6.4,12.5,5.3,12.5z"/>
</svg>
