<?xml version="1.0" encoding="utf-8"?>
<!-- Generator: Adobe Illustrator 15.0.2, SVG Export Plug-In . SVG Version: 6.00 Build 0)  -->
<!DOCTYPE svg PUBLIC "-//W3C//DTD SVG 1.1//EN" "http://www.w3.org/Graphics/SVG/1.1/DTD/svg11.dtd">
<svg version="1.1" id="Layer_1" xmlns="http://www.w3.org/2000/svg" xmlns:xlink="http://www.w3.org/1999/xlink" x="0px" y="0px"
	 width="22px" height="28px" viewBox="0 0 22 28" enable-background="new 0 0 22 28" xml:space="preserve">
<path opacity="0.7" fill="#FFFFFF" enable-background="new    " d="M21.514,6.734l0.019-0.018l-0.089-0.088
	c-0.022-0.025-0.045-0.048-0.071-0.071L20,5.187L16.814,2l0,0l-1.371-1.37C15.08,0.246,14.572,0,14,0h-2H4C1.801,0,0,1.801,0,4v20
	c0,2.201,1.801,4,4,4h14c2.201,0,4-1.799,4-4V10V8C22,7.513,21.805,7.082,21.514,6.734z M20,24c0,1.104-0.896,2-2,2H4
	c-1.102,0-2-0.896-2-2V3.998c0-1.103,0.898-2,2-2h8V4v2c0,2.2,1.801,3.998,4,3.998h4V24z M16,14H6c-0.553,0-1-0.447-1-1s0.447-1,1-1
	h10c0.553,0,1,0.447,1,1S16.553,14,16,14z M16,18H6c-0.553,0-1-0.447-1-1s0.447-1,1-1h10c0.553,0,1,0.447,1,1S16.553,18,16,18z
	 M16,22H6c-0.553,0-1-0.447-1-1s0.447-1,1-1h10c0.553,0,1,0.447,1,1S16.553,22,16,22z"/>
</svg>
