<?xml version="1.0" encoding="utf-8"?>
<!-- Generator: Adobe Illustrator 18.1.0, SVG Export Plug-In . SVG Version: 6.00 Build 0)  -->
<svg version="1.1" id="Layer_1" xmlns="http://www.w3.org/2000/svg" xmlns:xlink="http://www.w3.org/1999/xlink" x="0px" y="0px"
	 width="16px" height="16px" viewBox="0 0 16 16" enable-background="new 0 0 16 16" xml:space="preserve">
<g>
	<path fill="#4A4A48" d="M14.7,5.3c-0.5-0.4-3.2-2.4-4-3C10.5,2.1,10.3,2,10,2h0C9.1,1.3,8.1,0.6,7.7,0.3C7.5,0.1,7.3,0,7,0H3.5
		C1.5,0,1,1.9,1,2.5v9c0,2,1.9,2.5,2.5,2.5H4c0.2,1.6,1.5,2,2,2h6.5c2,0,2.5-1.9,2.5-2.5V6C15,5.7,14.9,5.5,14.7,5.3 M2,10.5v-7
		C2,1.5,2.5,1,4.5,1H6v1v1v1c0,0.6,0.4,1,1,1h2h2v2v3.5c0,2-0.5,2.5-2.5,2.5h-4C2.5,13,2,12.5,2,10.5 M14,12.5c0,2-0.5,2.5-2.5,2.5
		H7c-1.3,0-1.7-0.3-1.9-1c4.9,0,4.4,0,4.4,0c2,0,2.5-1.9,2.5-2.5V7h2V12.5z"/>
</g>
</svg>
