<?xml version="1.0" encoding="utf-8"?>
<!-- Generator: Adobe Illustrator 18.1.0, SVG Export Plug-In . SVG Version: 6.00 Build 0)  -->
<svg version="1.1" id="Layer_1" xmlns="http://www.w3.org/2000/svg" xmlns:xlink="http://www.w3.org/1999/xlink" x="0px" y="0px"
	 width="16px" height="16px" viewBox="0 0 16 16" enable-background="new 0 0 16 16" xml:space="preserve">
<g>
	<path fill="#4A4A48" d="M11.9,0.3c-0.6-0.5-1.4-0.4-1.9,0.2L4.4,7.3L2.9,5.9v0L2.3,5.2c-0.5-0.5-1.4-0.5-1.9,0
		c-0.5,0.5-0.5,1.3,0,1.9l3.2,3.2c0.2,0.2,0.6,0.4,0.9,0.4c0,0,0,0,0.1,0c0.4,0,0.7-0.2,1-0.5l6.6-8C12.5,1.6,12.5,0.8,11.9,0.3z"/>
	<g>
		<path fill="#4A4A48" d="M6.9,11.4c-0.3,0.4-0.7,0.7-1.2,0.9v2.8c0,0.5,0.4,0.9,0.9,0.9h2.8c0.5,0,0.9-0.4,0.9-0.9V7.2L6.9,11.4z"
			/>
		<path fill="#4A4A48" d="M4.6,12.5c-0.1,0-0.1,0-0.2,0c-0.8,0-1.6-0.3-2.3-0.9L0.4,9.7c-0.2,0.2-0.2,0.4-0.2,0.6v4.7
			c0,0.5,0.4,0.9,0.9,0.9h2.8c0.5,0,0.9-0.4,0.9-0.9v-2.6C4.7,12.5,4.7,12.5,4.6,12.5z"/>
		<path fill="#4A4A48" d="M15.1,1.9h-0.9c-0.1,0.5-0.3,1.1-0.7,1.5L11.3,6v9c0,0.5,0.4,0.9,0.9,0.9h2.8c0.5,0,0.9-0.4,0.9-0.9V2.8
			C16,2.3,15.6,1.9,15.1,1.9z"/>
	</g>
</g>
</svg>
