<?xml version="1.0" encoding="utf-8"?>
<!-- Generator: Adobe Illustrator 18.1.0, SVG Export Plug-In . SVG Version: 6.00 Build 0)  -->
<svg version="1.1" id="Layer_1" xmlns="http://www.w3.org/2000/svg" xmlns:xlink="http://www.w3.org/1999/xlink" x="0px" y="0px"
	 width="16px" height="16px" viewBox="0 0 16 16" enable-background="new 0 0 16 16" xml:space="preserve">
<g>
	<path fill="#4A4A48" d="M3.8,4.6c0-2.5,2-4.6,4.5-4.6c2.5,0,4.5,2.1,4.5,4.6c0,0.5-0.4,0.9-0.9,0.9c-0.5,0-0.9-0.4-0.9-0.9
		c0-1.6-1.2-2.8-2.7-2.8c-1.5,0-2.7,1.3-2.7,2.8c0,0.5-0.4,0.9-0.9,0.9C4.2,5.5,3.8,5.1,3.8,4.6z M14.5,8.9v4.4
		c0,1.5-1.2,2.7-2.7,2.7H4.7C3.2,16,2,14.8,2,13.3V8.9c0-1.5,1.2-2.7,2.7-2.7h7.1C13.3,6.2,14.5,7.4,14.5,8.9z M10,9.8
		C10,8.9,9.4,8.2,8.6,8C8.5,8,8.4,8,8.2,8C8.1,8,7.9,8,7.8,8.1C7,8.3,6.5,9,6.5,9.8c0,0,0,0,0,0c0,0,0,0,0,0c0,0.1,0,0.3,0.1,0.4
		c0,0,0,0.1,0,0.1c0,0.1,0.1,0.2,0.1,0.3c0,0,0,0,0,0.1c0.2,0.3,0.4,0.5,0.6,0.6c0,0,0,0,0,0v2c0,0.5,0.4,0.9,0.9,0.9
		c0.5,0,0.9-0.4,0.9-0.9v-2c0,0,0,0,0,0c0.3-0.2,0.5-0.4,0.6-0.6c0,0,0,0,0-0.1c0.1-0.1,0.1-0.2,0.1-0.3c0,0,0-0.1,0-0.1
		C10,10.1,10,9.9,10,9.8C10,9.8,10,9.8,10,9.8C10,9.8,10,9.8,10,9.8z"/>
</g>
</svg>
