<?xml version="1.0" encoding="utf-8"?>
<!-- Generator: Adobe Illustrator 18.1.0, SVG Export Plug-In . SVG Version: 6.00 Build 0)  -->
<svg version="1.1" id="Layer_1" xmlns="http://www.w3.org/2000/svg" xmlns:xlink="http://www.w3.org/1999/xlink" x="0px" y="0px"
	 width="16px" height="16px" viewBox="0 0 16 16" enable-background="new 0 0 16 16" xml:space="preserve">
<path fill="#4A4A48" d="M13.3,14.7V15H2.7v-0.3c0,0,0.3-0.6,0.6-0.6h9.5C13.1,14.1,13.3,14.4,13.3,14.7z M16,2.7v7.9
	c0,1-0.8,1.8-1.8,1.8H9.8c0,0.2,0,0.8,0,0.9c0,0.3-0.6,0.9-0.9,0.9H7.1c-0.3,0-0.9-0.6-0.9-0.9v-0.9H1.8c-1,0-1.8-0.8-1.8-1.8V2.7
	C0,1.8,0.8,1,1.8,1h12.4C15.2,1,16,1.8,16,2.7z M13.3,10.6c0.3,0,0.9-0.6,0.9-0.9V3.6c0-0.3-0.6-0.9-0.9-0.9H2.7
	c-0.3,0-0.9,0.6-0.9,0.9v6.1c0,0.3,0.6,0.9,0.9,0.9H13.3z"/>
</svg>
