<?xml version="1.0" encoding="utf-8"?>
<!-- Generator: Adobe Illustrator 18.1.0, SVG Export Plug-In . SVG Version: 6.00 Build 0)  -->
<svg version="1.1" id="Layer_1" xmlns="http://www.w3.org/2000/svg" xmlns:xlink="http://www.w3.org/1999/xlink" x="0px" y="0px"
	 width="16px" height="16px" viewBox="0 0 16 16" enable-background="new 0 0 16 16" xml:space="preserve">
<g>
	<path fill="#4A4A48" d="M15.7,3.5c0,0-2,2-2.2,2.2c-0.2,0.2-0.9,0.2-0.9,0.2s-1.8-0.2-2-0.5c-0.3-0.3-0.4-2.1-0.4-2.1
		s0-0.5,0.2-0.8c0.3-0.3,2.2-2.2,2.2-2.2S12.8,0,12.5,0C11.3,0,9,0,7.9,1.2L7.6,1.4C6.3,2.7,6.2,4.7,7.3,6.2l-6.6,6
		c-0.5,0.5-1.2,2,0,3.2c1.2,1.2,2.6,0.5,3.2,0c0,0,4.3-4.7,4.7-5.1c0.4-0.4,0.3-0.4,1.3-1.4l0,0c1.4,1.1,3.5,1,4.8-0.3l0.2-0.2
		C16,7.1,16,4.8,16,3.6C16,3.2,15.7,3.5,15.7,3.5z M2.2,15.1c-0.7,0-1.3-0.6-1.3-1.3c0-0.7,0.6-1.3,1.3-1.3c0.7,0,1.3,0.6,1.3,1.3
		C3.6,14.5,3,15.1,2.2,15.1z"/>
</g>
</svg>
