<?xml version="1.0" encoding="utf-8"?>
<!-- Generator: Adobe Illustrator 18.1.0, SVG Export Plug-In . SVG Version: 6.00 Build 0)  -->
<svg version="1.1" id="Layer_1" xmlns="http://www.w3.org/2000/svg" xmlns:xlink="http://www.w3.org/1999/xlink" x="0px" y="0px"
	 width="16px" height="16px" viewBox="0 0 16 16" enable-background="new 0 0 16 16" xml:space="preserve">
<g>
	<path fill="#4A4A49" d="M2.5,4.6c0,0,1.4,1.4,1.6,1.6c0.1,0.1,0.1,0.6,0.1,0.6S4.1,8.1,3.9,8.3C3.7,8.5,2.3,8.6,2.3,8.6
		S2,8.6,1.8,8.4C1.6,8.3,0.2,6.9,0.2,6.9S0,6.7,0,7c0,0.8,0,2.5,0.8,3.3L1,10.5c1,1,2.4,1,3.5,0.3l4.3,4.8c0.4,0.4,1.4,0.9,2.3,0
		c0.9-0.9,0.4-1.9,0-2.3c0,0-3.4-3.1-3.7-3.4C7.1,9.5,7.1,9.6,6.3,8.9l0,0c0.8-1,0.7-2.5-0.3-3.5L5.9,5.2C5.1,4.4,3.4,4.4,2.6,4.4
		C2.3,4.4,2.5,4.6,2.5,4.6z"/>
</g>
<path fill="#4A4A48" d="M14.6,5L16,4.2L15.6,3L14,3.2c-0.2-0.3-0.5-0.6-0.7-0.9l0.5-1.5l-1.2-0.6l-0.9,1.3c-0.4-0.1-0.8-0.1-1.1-0.1
	L9.7,0L8.4,0.4L8.6,2C8.3,2.2,8,2.5,7.8,2.8L6.2,2.3L5.6,3.5l0.1,0.1c0.4,0.2,0.8,0.4,1.2,0.7L7,4.4c1,1,1.4,2.4,1.1,3.7
	c0,0,0,0,0.1,0.1L8.1,8.6c0.1,0.1,0.1,0.1,0.2,0.2c0.1,0.1,0.5,0.5,1.1,1l0.5-0.7c0.4,0.1,0.8,0.1,1.2,0.1l0.7,1.4l1.3-0.4l-0.2-1.6
	c0.3-0.2,0.6-0.5,0.9-0.8l1.5,0.5l0.6-1.2l-1.3-0.9C14.6,5.8,14.6,5.4,14.6,5z M11.3,7.1c-1,0.3-2-0.2-2.4-1.2c-0.3-1,0.2-2,1.2-2.4
	c1-0.3,2,0.2,2.4,1.2C12.8,5.7,12.3,6.7,11.3,7.1z"/>
</svg>
