<?xml version="1.0" encoding="UTF-8" standalone="no"?>
<!-- Created with Inkscape (http://www.inkscape.org/) -->

<svg
   xmlns:dc="http://purl.org/dc/elements/1.1/"
   xmlns:cc="http://creativecommons.org/ns#"
   xmlns:rdf="http://www.w3.org/1999/02/22-rdf-syntax-ns#"
   xmlns:svg="http://www.w3.org/2000/svg"
   xmlns="http://www.w3.org/2000/svg"
   xmlns:sodipodi="http://sodipodi.sourceforge.net/DTD/sodipodi-0.dtd"
   xmlns:inkscape="http://www.inkscape.org/namespaces/inkscape"
   width="108.35376"
   height="108.20408"
   id="svg2"
   version="1.1"
   inkscape:version="0.48.2 r9819"
   sodipodi:docname="New document 1">
  <defs
     id="defs4" />
  <sodipodi:namedview
     id="base"
     pagecolor="#ffffff"
     bordercolor="#666666"
     borderopacity="1.0"
     inkscape:pageopacity="0.0"
     inkscape:pageshadow="2"
     inkscape:zoom="0.35"
     inkscape:cx="69.998069"
     inkscape:cy="28.312594"
     inkscape:document-units="px"
     inkscape:current-layer="layer1"
     showgrid="false"
     fit-margin-top="0"
     fit-margin-left="0"
     fit-margin-right="0"
     fit-margin-bottom="0"
     inkscape:window-width="621"
     inkscape:window-height="565"
     inkscape:window-x="1975"
     inkscape:window-y="243"
     inkscape:window-maximized="0" />
  <metadata
     id="metadata7">
    <rdf:RDF>
      <cc:Work
         rdf:about="">
        <dc:format>image/svg+xml</dc:format>
        <dc:type
           rdf:resource="http://purl.org/dc/dcmitype/StillImage" />
        <dc:title></dc:title>
      </cc:Work>
    </rdf:RDF>
  </metadata>
  <g
     inkscape:label="Layer 1"
     inkscape:groupmode="layer"
     id="layer1"
     transform="translate(-305.00193,-452.4707)">
    <g
       id="g3003"
       transform="translate(-89.419999,155.66259)">
      <path
         id="path3005"
         d="m 478.82597,329.57058 c -8.85017,-8.83146 -8.85017,-8.83146 -8.85017,-8.83146 -0.72971,-1.10393 -2.58208,-1.10393 -3.68601,0 -17.68163,17.66292 -17.68163,17.66292 -17.68163,17.66292 -17.70033,-17.66292 -17.70033,-17.66292 -17.70033,-17.66292 -1.10394,-1.10393 -2.58208,-1.10393 -3.68602,0 -8.47595,8.83146 -8.47595,8.83146 -8.47595,8.83146 -1.10393,0.72972 -1.10393,2.58208 0,3.68601 17.70034,17.66292 17.70034,17.66292 17.70034,17.66292 -17.70034,17.66292 -17.70034,17.66292 -17.70034,17.66292 -1.10393,1.10393 -1.10393,2.58207 0,3.68601 8.47595,8.45724 8.47595,8.45724 8.47595,8.45724 1.10394,1.10393 2.58208,1.10393 3.68602,0 17.70033,-17.66292 17.70033,-17.66292 17.70033,-17.66292 17.68163,17.66292 17.68163,17.66292 17.68163,17.66292 1.10393,1.10393 2.9563,1.10393 3.68601,0 8.85017,-8.45724 8.85017,-8.45724 8.85017,-8.45724 1.10394,-1.10394 1.10394,-2.58208 0,-3.68601 -17.70034,-17.66292 -17.70034,-17.66292 -17.70034,-17.66292 17.70034,-17.66292 17.70034,-17.66292 17.70034,-17.66292 1.10394,-1.10393 1.10394,-2.95629 0,-3.68601 z m 15.47377,-7.72753 c -0.72972,-1.47814 -2.58208,-1.85236 -4.04152,-0.74843 -1.10393,0.74843 -1.85236,2.58208 -0.74843,4.06023 0,0 0,0 0,0 4.78995,7.35331 7.37203,16.18477 7.37203,25.76466 0,26.49437 -21.74186,48.21752 -48.27366,48.21752 -26.5505,0 -48.29236,-21.72315 -48.29236,-48.21752 0,-26.51309 21.74186,-48.21752 48.29236,-48.21752 13.2659,0 25.42787,5.14545 33.90382,13.9769 1.47815,1.10394 3.3118,1.10394 4.41573,0 1.10394,-1.10393 1.10394,-2.93758 0,-4.04151 -9.93539,-9.93539 -23.22,-15.82927 -38.31955,-15.82927 -29.8623,0 -54.18623,24.28651 -54.18623,54.1114 0,29.80617 24.32393,54.09268 54.18623,54.09268 29.8436,0 54.16753,-24.28651 54.16753,-54.09268 0,-10.68382 -2.93758,-20.61921 -8.47595,-29.07646 z"
         style="fill:#58585a;fill-opacity:1;fill-rule:evenodd;stroke:none"
         inkscape:connector-curvature="0" />
    </g>
  </g>
</svg>
