<?xml version="1.0" encoding="utf-8"?>
<!-- Generator: Adobe Illustrator 15.0.0, SVG Export Plug-In . SVG Version: 6.00 Build 0)  -->
<!DOCTYPE svg PUBLIC "-//W3C//DTD SVG 1.1//EN" "http://www.w3.org/Graphics/SVG/1.1/DTD/svg11.dtd">
<svg version="1.1" id="Layer_1" xmlns="http://www.w3.org/2000/svg" xmlns:xlink="http://www.w3.org/1999/xlink" x="0px" y="0px"
	 width="16px" height="16px" viewBox="0 0 16 16" enable-background="new 0 0 16 16" xml:space="preserve">
<path fill="#FFFFFF" d="M8,15.874c-4.343,0-7.875-3.532-7.875-7.874c0-4.343,3.532-7.874,7.875-7.874S15.875,3.657,15.875,8
	C15.875,12.342,12.343,15.874,8,15.874z M8,1.875C4.622,1.875,1.874,4.623,1.874,8c0,3.378,2.748,6.126,6.126,6.126
	c3.377,0,6.125-2.748,6.125-6.126C14.125,4.623,11.377,1.875,8,1.875z M11.348,8L6.796,3.445L5.559,4.682L8.875,8l-3.316,3.317
	l1.237,1.237L11.348,8z"/>
</svg>
