<?xml version="1.0" encoding="utf-8"?>
<!-- Generator: Adobe Illustrator 15.0.0, SVG Export Plug-In . SVG Version: 6.00 Build 0)  -->
<!DOCTYPE svg PUBLIC "-//W3C//DTD SVG 1.1//EN" "http://www.w3.org/Graphics/SVG/1.1/DTD/svg11.dtd">
<svg version="1.1" id="Layer_1" xmlns="http://www.w3.org/2000/svg" xmlns:xlink="http://www.w3.org/1999/xlink" x="0px" y="0px"
	 width="16px" height="16px" viewBox="0 0 16 16" enable-background="new 0 0 16 16" xml:space="preserve">
<g>
	<rect fill="none" width="16" height="16"/>
	<rect fill="none" width="16" height="16"/>
	<g>
		<path fill="#333333" d="M11.027,10.904c0.045-0.108,0.02-0.234-0.063-0.317L8.218,7.5c-0.114-0.113-0.299-0.113-0.411,0
			l-2.772,3.087c-0.057,0.055-0.085,0.13-0.085,0.205c0,0.037,0.008,0.076,0.022,0.112c0.045,0.107,0.15,0.173,0.269,0.173h1.521
			c0,2.575-0.442,3.977-3.377,4.828c4.914,0,5.877-2.843,5.877-4.828h1.498C10.877,11.077,10.982,11.012,11.027,10.904z"/>
	</g>
	<path fill="#333333" d="M14.152,0H1.846C0.827,0,0,0.826,0,1.846v9.847c0,1.02,0.827,1.845,1.846,1.845h3.077v-1.229H1.846
		c-0.339,0-0.615-0.276-0.615-0.615V4.308H14.77v7.385c0,0.339-0.277,0.615-0.617,0.615h-3.691v1.229h3.691
		c1.02,0,1.848-0.825,1.848-1.845V1.846C16,0.826,15.172,0,14.152,0z M2.51,2.683c0,0.245-0.199,0.442-0.442,0.442H1.625
		c-0.246,0-0.442-0.197-0.442-0.442V2.24c0-0.244,0.197-0.442,0.442-0.442h0.442c0.244,0,0.442,0.198,0.442,0.442V2.683z
		 M4.355,2.683c0,0.245-0.197,0.442-0.442,0.442H3.471c-0.244,0-0.442-0.197-0.442-0.442V2.24c0-0.244,0.198-0.442,0.442-0.442
		h0.442c0.245,0,0.442,0.198,0.442,0.442V2.683z M14.77,3.077H4.923V1.846h9.847V3.077z"/>
</g>
</svg>
