<?xml version="1.0" encoding="utf-8"?>
<!-- Generator: Adobe Illustrator 15.0.0, SVG Export Plug-In . SVG Version: 6.00 Build 0)  -->
<!DOCTYPE svg PUBLIC "-//W3C//DTD SVG 1.1//EN" "http://www.w3.org/Graphics/SVG/1.1/DTD/svg11.dtd">
<svg version="1.1" id="Layer_1" xmlns="http://www.w3.org/2000/svg" xmlns:xlink="http://www.w3.org/1999/xlink" x="0px" y="0px"
	 width="16px" height="16px" viewBox="0 0 16 16" enable-background="new 0 0 16 16" xml:space="preserve">
<path fill="#333333" d="M8,0.731C3.985,0.731,0.73,3.985,0.73,8S3.985,15.27,8,15.27s7.27-3.255,7.27-7.27S12.015,0.731,8,0.731z
	 M8.615,12C8.615,12,8,12.173,8,11.385c0-0.179,0-0.773,0-1.539H4.923c-0.339,0-0.616-0.275-0.616-0.615V6.769
	c0-0.339,0.276-0.615,0.616-0.615H8c0-0.737,0-1.327,0-1.559C8,3.769,8.615,4,8.615,4l4,4L8.615,12z"/>
</svg>
