<?xml version="1.0" encoding="utf-8"?>
<!-- Generator: Adobe Illustrator 15.0.0, SVG Export Plug-In . SVG Version: 6.00 Build 0)  -->
<!DOCTYPE svg PUBLIC "-//W3C//DTD SVG 1.1//EN" "http://www.w3.org/Graphics/SVG/1.1/DTD/svg11.dtd">
<svg version="1.1" id="Layer_1" xmlns="http://www.w3.org/2000/svg" xmlns:xlink="http://www.w3.org/1999/xlink" x="0px" y="0px"
	 width="16px" height="16px" viewBox="0 0 16 16" enable-background="new 0 0 16 16" xml:space="preserve">
<g>
	<rect x="2" y="2" fill="none" width="12" height="12"/>
	<path fill="#333333" d="M13.539,2.461h-0.463v0.923h-1.385V2.461H4.308v0.923H2.923V2.461H2.461C2.207,2.461,2,2.669,2,2.923
		v10.153c0,0.255,0.207,0.463,0.461,0.463h0.461v-0.463h1.385v0.463h7.384v-0.463h1.385v0.463h0.463
		c0.254,0,0.461-0.208,0.461-0.463V2.923C14,2.669,13.793,2.461,13.539,2.461z M4.308,11.692H2.923v-1.385h1.385V11.692z
		 M4.308,8.923H2.923V7.539h1.385V8.923z M4.308,6.154H2.923V4.77h1.385V6.154z M13.076,11.692h-1.385v-1.385h1.385V11.692z
		 M13.076,8.923h-1.385V7.539h1.385V8.923z M13.076,6.154h-1.385V4.77h1.385V6.154z"/>
</g>
</svg>
